<svg xmlns="http://www.w3.org/2000/svg" viewBox="0 0 280 140"><title>pinion_00284B</title><g id="TEXT"><path d="M98.33,75.07v8H92.25V57h11.26a10.29,10.29,0,0,1,3.78.68,9.24,9.24,0,0,1,3,1.89,8.67,8.67,0,0,1,2,2.87,9.23,9.23,0,0,1,.7,3.64,9.38,9.38,0,0,1-.69,3.65,8.22,8.22,0,0,1-1.93,2.85,8.75,8.75,0,0,1-3,1.85,10.41,10.41,0,0,1-3.75.66Zm4.93-5.21a3.29,3.29,0,0,0,1.4-.3,3.58,3.58,0,0,0,1.14-.81,3.74,3.74,0,0,0,.77-1.2,3.84,3.84,0,0,0,.28-1.49,4,4,0,0,0-1-2.72,3.49,3.49,0,0,0-1.14-.83,3.15,3.15,0,0,0-1.4-.31H98.33v7.66Z" style="fill:#00284b"/><path d="M121.57,57h6.08V83.07h-6.08Z" style="fill:#00284b"/><path d="M163.55,83.07h-5.26L145.84,67.44V83.07h-6.08V57h5.29l12.43,15.6V57h6.07Z" style="fill:#00284b"/><path d="M175.67,57h6.08V83.07h-6.08Z" style="fill:#00284b"/><path d="M191,70a12.86,12.86,0,0,1,.51-3.64,13.45,13.45,0,0,1,3.67-6,14.32,14.32,0,0,1,6.28-3.5,14.68,14.68,0,0,1,13.89,3.5,13.7,13.7,0,0,1,2.23,2.76A13.19,13.19,0,0,1,219,66.35a13.28,13.28,0,0,1,0,7.29,13.28,13.28,0,0,1-1.44,3.27,13.76,13.76,0,0,1-2.23,2.77,14.17,14.17,0,0,1-2.9,2.13,15.2,15.2,0,0,1-3.41,1.37,14.9,14.9,0,0,1-7.58,0,14.94,14.94,0,0,1-3.4-1.37,13.72,13.72,0,0,1-6.55-8.17A13,13,0,0,1,191,70Zm6.07,0a8.62,8.62,0,0,0,.64,3.35A8.17,8.17,0,0,0,199.49,76a8.08,8.08,0,0,0,2.6,1.78,8.34,8.34,0,0,0,6.41,0A7.87,7.87,0,0,0,211.1,76a8.31,8.31,0,0,0,1.75-2.67,9.09,9.09,0,0,0,0-6.7A8.31,8.31,0,0,0,211.1,64a7.87,7.87,0,0,0-2.6-1.78,8.13,8.13,0,0,0-9,1.78,8.17,8.17,0,0,0-1.76,2.67A8.62,8.62,0,0,0,197.09,70Z" style="fill:#00284b"/><path d="M251,83.07h-5.26L233.32,67.44V83.07h-6.08V57h5.3L245,72.58V57H251Z" style="fill:#00284b"/></g><g id="logos"><polygon points="67.04 25.69 46.11 46.62 25.17 25.69 67.04 25.69" style="fill:#f5416e"/><polygon points="52.2 67.24 46.11 114.61 40.02 67.24 52.2 67.24" style="fill:#f5416e"/><rect x="35.77" y="36.12" width="20.68" height="20.68" style="fill:#f5416e"/><path d="M26.54,70.2A19.57,19.57,0,0,1,46.11,50.64h0A19.56,19.56,0,0,1,65.67,70.2Z" style="fill:#f5416e"/></g></svg>